# xmcd
#
# Track frame offsets:
#	150
#	16250
#	31626
#	44984
#	60771
#	74894
#	90941
#	107981
#	124295
#	141103
#	155908
#	170260
#	186893
#	203632
#	229322
#
# Disc length: 3538 seconds
#
# Revision: 17
# Processed by: cddbd v1.5.2PL0 Copyright (c) Steve Scherf et al.
# Submitted via: EasyCDDAExtractor 15.3.0.1
#
DISCID=d20dd00f
DTITLE=RBD - Nuestro Amor
DYEAR=2005
DGENRE=Latin
TTITLE0=Nuestro Amor
TTITLE1=Me Voy
TTITLE2=Feliz Cumpleaños
TTITLE3=Este Corazon
TTITLE4=Asi Soy Yo
TTITLE5=Aun Hay Algo
TTITLE6=A Tu Lado
TTITLE7=Fuera
TTITLE8=Que Fue Del Amor
TTITLE9=Que Hay Detras
TTITLE10=Tras De Mi
TTITLE11=Solo Para Ti
TTITLE12=Una Cancion
TTITLE13=Liso, Sensual
TTITLE14=Nuestro Amor (Video) (Bonus)
EXTD=
EXTT0=
EXTT1=
EXTT2=
EXTT3=
EXTT4=
EXTT5=
EXTT6=
EXTT7=
EXTT8=
EXTT9=
EXTT10=
EXTT11=
EXTT12=
EXTT13=
EXTT14=
PLAYORDER=
